<svg xmlns="http://www.w3.org/2000/svg" width="24" height="24" viewBox="0 0 24 24" fill="none">
  <!-- Palette outline -->
  <path d="M12 3C7.03 3 3 7.03 3 12c0 5.52 4.48 10 10 10h1.6a2.4 2.4 0 0 0 2.4-2.4c0-.64-.25-1.25-.7-1.7l-.25-.25a1.5 1.5 0 0 1 1.06-2.56H19.5A3.5 3.5 0 0 0 23 11.6C22.82 6.85 17.97 3 12 3Z" stroke="#282828" stroke-width="2" stroke-linecap="round" stroke-linejoin="round"></path>

  <!-- Paint dabs -->
  <circle cx="8.2" cy="10.2" r="1" fill="#282828"></circle>
  <circle cx="11.2" cy="8.2" r="1" fill="#282828"></circle>
  <circle cx="14.2" cy="10.0" r="1" fill="#282828"></circle>
  <circle cx="9.8" cy="13.2" r="1" fill="#282828"></circle>
</svg>
